# xmcd
#
# Track frame offsets: 
#        150
#        15769
#        28343
#        45817
#        62484
#        78550
#        95026
#        104910
#        118699
#        137193
#        149367
#
# Disc length: 2395 seconds
#
# Revision: 0
# Processed by: cddbd v1.5.2PL0 Copyright (c) Steve Scherf et al.
# Submitted via: ExactAudioCopyFreeDBPlugin 1.0
#
DISCID=9409590b
DTITLE=Metá Metá - Gira 
DYEAR=1900
DGENRE=
TTITLE0=Ogó
TTITLE1=Pé
TTITLE2=Sete
TTITLE3=Ogun
TTITLE4=Oxetuá
TTITLE5=Bará
TTITLE6=Agô Lonan
TTITLE7=Okotô
TTITLE8=Vamunha
TTITLE9=Okuta Yangi I
TTITLE10=Okuta Yangi II
EXTD=
EXTT0=
EXTT1=
EXTT2=
EXTT3=
EXTT4=
EXTT5=
EXTT6=
EXTT7=
EXTT8=
EXTT9=
EXTT10=
PLAYORDER=
